<mxfile host="65bd71144e">
    <diagram id="Z9hFlu9-fD196QhTDpbl" name="第 1 页">
        <mxGraphModel dx="671" dy="627" grid="1" gridSize="10" guides="1" tooltips="1" connect="1" arrows="1" fold="1" page="1" pageScale="1" pageWidth="827" pageHeight="1169" math="0" shadow="0">
            <root>
                <mxCell id="0"/>
                <mxCell id="1" parent="0"/>
                <mxCell id="2" value="" style="rounded=1;whiteSpace=wrap;html=1;sketch=1;shadow=1;glass=0;fillColor=#dae8fc;strokeColor=#6c8ebf;fontFamily=Comic Sans MS;" vertex="1" parent="1">
                    <mxGeometry x="120" y="130" width="630" height="290" as="geometry"/>
                </mxCell>
                <mxCell id="3" value="" style="rounded=0;whiteSpace=wrap;html=1;sketch=1;glass=0;shadow=1;" vertex="1" parent="1">
                    <mxGeometry x="140" y="190" width="580" height="90" as="geometry"/>
                </mxCell>
                <mxCell id="4" value="&lt;font style=&quot;font-size: 20px&quot; face=&quot;Comic Sans MS&quot;&gt;topic - 主题&lt;/font&gt;" style="text;html=1;strokeColor=none;fillColor=none;align=center;verticalAlign=middle;whiteSpace=wrap;rounded=0;sketch=1;" vertex="1" parent="1">
                    <mxGeometry x="110" y="150" width="170" height="20" as="geometry"/>
                </mxCell>
                <mxCell id="5" value="&lt;font face=&quot;Comic Sans MS&quot;&gt;partition - 分区&lt;/font&gt;" style="text;html=1;strokeColor=none;fillColor=none;align=center;verticalAlign=middle;whiteSpace=wrap;rounded=0;fontSize=20;" vertex="1" parent="1">
                    <mxGeometry x="140" y="200" width="160" height="20" as="geometry"/>
                </mxCell>
                <mxCell id="6" value="" style="rounded=0;whiteSpace=wrap;html=1;fontFamily=Comic Sans MS;sketch=1;shadow=1;" vertex="1" parent="1">
                    <mxGeometry x="165" y="230" width="530" height="40" as="geometry"/>
                </mxCell>
                <mxCell id="7" value="&lt;font style=&quot;font-size: 16px&quot;&gt;batch - 批次&lt;/font&gt;" style="text;html=1;strokeColor=none;fillColor=none;align=center;verticalAlign=middle;whiteSpace=wrap;rounded=0;shadow=1;sketch=1;fontFamily=Comic Sans MS;" vertex="1" parent="1">
                    <mxGeometry x="165" y="238.5" width="110" height="22.5" as="geometry"/>
                </mxCell>
                <mxCell id="8" value="&lt;font style=&quot;font-size: 13px&quot;&gt;message - 消息&lt;/font&gt;" style="rounded=0;whiteSpace=wrap;html=1;shadow=1;sketch=1;fontFamily=Comic Sans MS;" vertex="1" parent="1">
                    <mxGeometry x="280" y="239" width="120" height="22" as="geometry"/>
                </mxCell>
                <mxCell id="9" value="&lt;font style=&quot;font-size: 13px&quot;&gt;message - 消息&lt;/font&gt;" style="rounded=0;whiteSpace=wrap;html=1;shadow=1;sketch=1;fontFamily=Comic Sans MS;" vertex="1" parent="1">
                    <mxGeometry x="414" y="239" width="120" height="22" as="geometry"/>
                </mxCell>
                <mxCell id="10" value="&lt;font style=&quot;font-size: 13px&quot;&gt;message - 消息&lt;/font&gt;" style="rounded=0;whiteSpace=wrap;html=1;shadow=1;sketch=1;fontFamily=Comic Sans MS;" vertex="1" parent="1">
                    <mxGeometry x="550" y="239" width="120" height="22" as="geometry"/>
                </mxCell>
                <mxCell id="13" value="" style="rounded=0;whiteSpace=wrap;html=1;sketch=1;glass=0;shadow=1;" vertex="1" parent="1">
                    <mxGeometry x="140" y="300" width="580" height="90" as="geometry"/>
                </mxCell>
                <mxCell id="14" value="&lt;font face=&quot;Comic Sans MS&quot;&gt;partition - 分区&lt;/font&gt;" style="text;html=1;strokeColor=none;fillColor=none;align=center;verticalAlign=middle;whiteSpace=wrap;rounded=0;fontSize=20;" vertex="1" parent="1">
                    <mxGeometry x="140" y="310" width="160" height="20" as="geometry"/>
                </mxCell>
                <mxCell id="15" value="" style="rounded=0;whiteSpace=wrap;html=1;fontFamily=Comic Sans MS;sketch=1;shadow=1;" vertex="1" parent="1">
                    <mxGeometry x="165" y="340" width="530" height="40" as="geometry"/>
                </mxCell>
                <mxCell id="16" value="&lt;font style=&quot;font-size: 16px&quot;&gt;batch - 批次&lt;/font&gt;" style="text;html=1;strokeColor=none;fillColor=none;align=center;verticalAlign=middle;whiteSpace=wrap;rounded=0;shadow=1;sketch=1;fontFamily=Comic Sans MS;" vertex="1" parent="1">
                    <mxGeometry x="165" y="348.5" width="110" height="22.5" as="geometry"/>
                </mxCell>
                <mxCell id="17" value="&lt;font style=&quot;font-size: 13px&quot;&gt;message - 消息&lt;/font&gt;" style="rounded=0;whiteSpace=wrap;html=1;shadow=1;sketch=1;fontFamily=Comic Sans MS;" vertex="1" parent="1">
                    <mxGeometry x="280" y="349" width="120" height="22" as="geometry"/>
                </mxCell>
                <mxCell id="18" value="&lt;font style=&quot;font-size: 13px&quot;&gt;message - 消息&lt;/font&gt;" style="rounded=0;whiteSpace=wrap;html=1;shadow=1;sketch=1;fontFamily=Comic Sans MS;" vertex="1" parent="1">
                    <mxGeometry x="414" y="349" width="120" height="22" as="geometry"/>
                </mxCell>
                <mxCell id="19" value="&lt;font style=&quot;font-size: 13px&quot;&gt;message - 消息&lt;/font&gt;" style="rounded=0;whiteSpace=wrap;html=1;shadow=1;sketch=1;fontFamily=Comic Sans MS;" vertex="1" parent="1">
                    <mxGeometry x="550" y="349" width="120" height="22" as="geometry"/>
                </mxCell>
            </root>
        </mxGraphModel>
    </diagram>
</mxfile>